<?xml version="1.0" standalone="no"?>
<!DOCTYPE svg PUBLIC "-//W3C//DTD SVG 20010904//EN"
 "http://www.w3.org/TR/2001/REC-SVG-20010904/DTD/svg10.dtd">
<svg version="1.0" xmlns="http://www.w3.org/2000/svg"
 width="512.000000pt" height="512.000000pt" viewBox="0 0 512.000000 512.000000"
 preserveAspectRatio="xMidYMid meet">
    <g transform="translate(0.000000,512.000000) scale(0.100000,-0.100000)"
    fill="#000000" stroke="none">
        <path d="M1346 4910 c-36 -5 -65 -15 -76 -26 -10 -11 -31 -62 -47 -113 l-29
        -95 -94 -36 c-52 -20 -117 -48 -145 -62 l-50 -26 -85 49 c-47 27 -97 49 -111
        49 -72 1 -359 -287 -359 -358 0 -15 22 -65 49 -112 l49 -85 -26 -50 c-14 -27
        -42 -93 -62 -145 l-36 -94 -95 -29 c-51 -16 -102 -37 -112 -46 -49 -47 -49
        -455 0 -502 10 -9 61 -30 112 -46 l95 -29 36 -94 c20 -52 48 -117 62 -145 l26
        -50 -49 -85 c-27 -47 -49 -97 -49 -112 0 -35 68 -125 169 -221 102 -97 157
        -137 190 -137 14 0 64 22 111 49 l85 49 50 -26 c28 -14 93 -42 145 -62 l94
        -36 29 -95 c16 -51 37 -102 46 -112 47 -49 455 -49 502 0 9 10 30 61 46 112
        l29 95 94 36 c52 20 118 48 145 62 l50 26 85 -49 c47 -27 97 -49 112 -49 35 0
        125 68 221 169 97 102 137 157 137 190 0 14 -22 64 -49 111 l-49 85 26 50 c14
        28 42 93 62 145 l36 94 95 29 c51 16 102 37 112 46 23 22 36 117 36 251 0 134
        -13 229 -36 251 -10 9 -61 30 -112 46 l-95 29 -36 94 c-20 52 -48 118 -62 145
        l-26 50 49 85 c27 47 49 97 49 111 1 72 -287 359 -358 359 -15 0 -65 -22 -112
        -49 l-85 -49 -50 26 c-27 14 -93 42 -145 62 l-94 36 -29 95 c-16 51 -37 102
        -46 112 -32 33 -266 47 -425 27z m316 -1108 c66 -29 143 -104 175 -171 25 -49
        28 -67 28 -151 -1 -76 -5 -105 -23 -143 -30 -66 -104 -142 -171 -174 -49 -25
        -68 -28 -151 -28 -83 0 -102 3 -151 28 -67 32 -141 108 -171 174 -31 68 -32
        217 -1 285 40 86 115 155 206 189 69 26 191 22 259 -9z"/>
        <path d="M3777 3951 c-26 -4 -54 -14 -62 -22 -9 -9 -26 -48 -38 -89 l-22 -73
        -52 -18 c-29 -10 -74 -29 -101 -42 l-49 -25 -64 34 c-90 48 -112 46 -195 -24
        -38 -32 -94 -88 -126 -126 -70 -83 -72 -105 -24 -195 l34 -64 -25 -49 c-13
        -27 -33 -72 -42 -101 l-18 -52 -77 -23 c-110 -33 -111 -36 -111 -242 0 -206 1
        -209 111 -242 l77 -23 18 -52 c9 -29 29 -74 42 -101 l25 -49 -34 -64 c-49 -90
        -46 -111 25 -196 85 -100 187 -183 226 -183 17 0 59 15 94 34 l64 34 49 -25
        c27 -13 72 -33 101 -42 l52 -18 23 -77 c33 -109 37 -111 237 -111 207 0 211 2
        245 109 l26 79 50 18 c28 9 74 28 102 41 l51 25 63 -34 c88 -47 110 -44 191
        23 38 31 95 88 128 127 71 85 74 106 25 197 l-34 64 25 50 c14 28 33 73 43
        101 l17 49 79 26 c107 34 109 38 109 245 0 200 -2 204 -111 237 l-77 23 -18
        52 c-9 29 -29 74 -42 101 l-25 49 34 64 c19 35 34 77 34 94 0 39 -83 141 -183
        226 -85 71 -106 74 -197 25 -58 -31 -66 -33 -85 -20 -12 8 -58 27 -101 43
        l-79 29 -23 76 c-31 103 -38 107 -204 111 -73 2 -154 0 -181 -4z m266 -852
        c58 -29 104 -75 135 -134 21 -41 26 -64 26 -125 0 -61 -5 -84 -26 -125 -112
        -214 -404 -214 -516 0 -36 69 -37 179 -3 245 42 81 112 139 196 161 47 13 141
        1 188 -22z"/>
        <path d="M2738 1991 c-52 -11 -65 -25 -83 -90 l-16 -56 -76 -29 -76 -28 -58
        27 c-52 26 -60 27 -89 15 -43 -18 -192 -166 -209 -208 -13 -31 -12 -38 14 -91
        l27 -58 -28 -76 -29 -76 -58 -16 c-85 -24 -92 -39 -92 -205 0 -166 7 -181 92
        -205 l58 -16 29 -76 28 -76 -27 -58 c-26 -53 -27 -60 -15 -90 17 -41 168 -192
        209 -209 30 -12 37 -11 90 15 l58 27 76 -28 76 -29 16 -58 c24 -85 39 -92 205
        -92 165 0 178 6 204 91 l18 59 75 29 76 28 58 -27 c53 -26 60 -27 91 -14 42
        17 190 166 208 209 12 29 11 37 -15 89 l-27 58 28 76 29 76 58 16 c85 24 92
        39 92 205 0 166 -7 181 -92 205 l-58 16 -29 76 -28 76 27 58 c26 52 27 60 15
        89 -18 43 -166 192 -208 209 -31 13 -38 12 -91 -14 l-58 -27 -76 28 -76 29
        -16 58 c-23 80 -39 89 -178 93 -62 2 -129 -1 -149 -5z m203 -662 c127 -38 196
        -202 138 -329 -27 -60 -54 -88 -114 -116 -91 -43 -219 -22 -282 47 -37 41 -63
        110 -63 169 0 59 26 128 63 169 55 60 169 86 258 60z"/>
    </g>
</svg>
