<?xml version="1.0" standalone="no"?>
<!DOCTYPE svg PUBLIC "-//W3C//DTD SVG 20010904//EN"
 "http://www.w3.org/TR/2001/REC-SVG-20010904/DTD/svg10.dtd">
<svg version="1.0" xmlns="http://www.w3.org/2000/svg"
 width="512.000000pt" height="512.000000pt" viewBox="0 0 512.000000 512.000000"
 preserveAspectRatio="xMidYMid meet">
    <g transform="translate(0.000000,512.000000) scale(0.100000,-0.100000)"
    fill="#000000" stroke="none">
        <path d="M2315 5109 c-800 -83 -1501 -518 -1927 -1196 -487 -774 -516 -1777
        -75 -2578 200 -364 487 -676 841 -913 238 -159 600 -311 876 -366 214 -43 295
        -51 530 -51 236 0 333 10 532 51 879 183 1616 843 1897 1699 93 282 126 493
        126 805 0 301 -32 513 -116 775 -124 390 -330 728 -622 1024 -399 404 -893
        653 -1462 737 -123 18 -478 26 -600 13z m1062 -1051 c73 -27 154 -102 190
        -177 l28 -56 3 -293 3 -293 -34 -34 c-29 -29 -42 -35 -79 -35 -24 0 -54 7 -66
        16 -48 34 -52 56 -52 319 0 275 -5 299 -63 329 -29 15 -94 17 -734 14 l-702
        -3 357 -205 c397 -228 441 -262 483 -365 l24 -60 3 -812 3 -813 270 0 c290 0
        313 4 341 53 9 15 14 94 18 264 5 239 5 242 29 267 52 55 132 51 179 -9 21
        -27 22 -36 22 -279 0 -239 -2 -254 -23 -307 -31 -74 -67 -120 -130 -163 -86
        -59 -135 -66 -438 -66 l-266 0 -5 -117 c-7 -146 -29 -210 -96 -281 -68 -72
        -138 -104 -238 -110 -50 -3 -97 0 -120 8 -52 16 -815 456 -863 497 -21 17 -53
        60 -72 95 l-34 63 0 1160 0 1160 28 57 c35 71 119 150 190 177 51 19 74 20
        919 20 864 1 867 1 925 -21z m635 -1096 c187 -187 198 -200 198 -235 0 -21 -6
        -50 -14 -65 -17 -32 -342 -355 -373 -371 -61 -31 -142 1 -163 64 -17 53 1 91
        80 170 l71 70 -451 5 -450 5 -31 31 c-62 62 -40 163 41 191 25 8 159 12 465
        12 l430 1 -77 78 c-87 86 -100 118 -74 174 21 43 60 67 111 68 38 0 46 -7 237
        -198z"/>
    </g>
</svg>
