<?xml version="1.0" standalone="no"?>
<!DOCTYPE svg PUBLIC "-//W3C//DTD SVG 20010904//EN"
 "http://www.w3.org/TR/2001/REC-SVG-20010904/DTD/svg10.dtd">
<svg version="1.0" xmlns="http://www.w3.org/2000/svg"
 width="512.000000pt" height="512.000000pt" viewBox="0 0 512.000000 512.000000"
 preserveAspectRatio="xMidYMid meet">
    <g transform="translate(0.000000,512.000000) scale(0.100000,-0.100000)"
    fill="#000000" stroke="none">
        <path d="M2325 5109 c-471 -44 -927 -221 -1312 -510 -119 -90 -320 -283 -425
        -409 -277 -331 -480 -775 -552 -1205 -120 -720 75 -1466 531 -2030 230 -285
        525 -521 854 -684 727 -362 1553 -361 2278 0 265 132 470 280 673 485 211 215
        348 405 477 665 362 727 362 1551 0 2278 -397 800 -1174 1329 -2069 1410 -131
        12 -323 12 -455 0z m638 -1611 l402 402 268 -267 267 -268 -402 -402 -403
        -403 403 -403 402 -402 -267 -268 -268 -267 -402 402 -403 403 -403 -403 -402
        -402 -268 267 -267 268 402 402 403 403 -403 403 -402 402 267 268 268 267
        402 -402 403 -403 403 403z"/>
    </g>
</svg>
