<?xml version="1.0" standalone="no"?>
<!DOCTYPE svg PUBLIC "-//W3C//DTD SVG 20010904//EN"
 "http://www.w3.org/TR/2001/REC-SVG-20010904/DTD/svg10.dtd">
<svg version="1.0" xmlns="http://www.w3.org/2000/svg"
 width="512.000000pt" height="512.000000pt" viewBox="0 0 512.000000 512.000000"
 preserveAspectRatio="xMidYMid meet">

<g transform="translate(0.000000,512.000000) scale(0.100000,-0.100000)"
fill="#fff" stroke="none">
<path fill="#fff" d="M403 5100 c-53 -27 -88 -93 -80 -147 4 -20 50 -113 104 -206 54 -94
100 -174 101 -179 2 -4 -93 -8 -211 -8 -206 0 -215 -1 -248 -23 -91 -61 -89
-181 5 -251 25 -19 45 -21 241 -26 l213 -5 -100 -172 c-54 -95 -102 -188 -105
-207 -7 -47 27 -120 69 -146 46 -28 115 -27 159 3 32 21 69 79 203 312 l38 68
60 -104 c175 -300 169 -294 265 -294 52 0 66 4 88 25 38 36 55 73 55 121 0 35
-17 71 -100 216 -55 95 -100 176 -100 178 0 3 89 5 198 5 185 0 201 1 242 23
25 12 53 36 63 54 25 44 24 114 -2 157 -38 60 -64 66 -295 66 -113 0 -206 4
-206 9 0 5 36 71 81 147 111 191 119 208 119 254 0 127 -143 195 -239 114 -16
-13 -73 -100 -126 -194 -54 -93 -101 -168 -104 -165 -4 2 -52 81 -107 175 -58
102 -110 180 -127 192 -43 31 -103 33 -154 8z"/>
<path fill="#fff" d="M3940 5102 c-49 -24 -80 -75 -80 -129 0 -50 7 -64 119 -257 45 -76
81 -142 81 -147 0 -4 -98 -9 -217 -11 -200 -3 -220 -5 -245 -23 -39 -30 -60
-71 -60 -121 0 -60 28 -104 82 -131 41 -22 57 -23 242 -23 109 0 198 -2 198
-5 0 -2 -46 -84 -101 -180 -101 -174 -101 -176 -97 -231 4 -47 10 -61 42 -92
34 -35 40 -37 99 -37 96 0 90 -6 265 294 l60 104 38 -68 c134 -233 171 -291
203 -312 44 -30 113 -31 159 -3 42 26 76 99 69 146 -3 19 -51 112 -105 207
l-100 172 213 5 c196 5 216 7 241 26 94 70 96 190 5 251 -33 22 -42 23 -248
23 -118 0 -213 4 -211 8 2 5 48 87 103 183 88 152 100 179 100 220 0 83 -63
144 -148 144 -79 0 -99 -20 -211 -215 -55 -94 -103 -173 -107 -175 -3 -3 -50
71 -103 163 -53 93 -106 178 -119 190 -47 44 -110 53 -167 24z"/>
<path fill="#fff" d="M2479 3647 c-67 -45 -69 -55 -69 -407 l0 -314 -227 226 c-194 192
-234 227 -266 233 -117 22 -204 -65 -182 -182 6 -32 41 -72 233 -265 l226
-228 -314 0 c-280 0 -319 -2 -350 -18 -107 -53 -107 -211 0 -264 31 -16 70
-18 350 -18 l314 0 -226 -227 c-192 -194 -227 -234 -233 -265 -22 -118 65
-205 182 -183 32 6 72 41 266 233 l227 226 0 -314 c0 -280 2 -319 18 -350 53
-107 211 -107 264 0 16 31 18 70 18 350 l0 315 218 -217 c119 -119 231 -223
249 -232 85 -43 192 8 209 100 15 83 8 93 -234 337 l-226 227 314 0 c280 0
319 2 350 18 107 53 107 211 0 264 -31 16 -70 18 -350 18 l-314 0 226 228
c192 193 227 233 233 264 22 118 -65 205 -182 183 -32 -6 -72 -41 -265 -233
l-228 -226 0 314 c0 280 -2 319 -18 350 -25 50 -75 80 -132 80 -32 0 -58 -7
-81 -23z"/>
<path fill="#fff" d="M395 1391 c-46 -28 -69 -69 -69 -126 -1 -46 8 -65 100 -225 l102
-175 -213 -5 c-196 -5 -216 -7 -241 -26 -94 -70 -96 -190 -5 -251 33 -22 42
-23 248 -23 118 0 213 -4 211 -8 -1 -5 -48 -87 -103 -183 -88 -152 -100 -179
-100 -220 0 -83 63 -144 148 -144 79 0 99 20 211 215 55 94 103 173 107 175 3
3 50 -72 104 -165 53 -94 110 -181 126 -195 96 -80 239 -12 239 115 0 46 -8
63 -119 254 -45 76 -81 142 -81 147 0 5 93 9 206 9 231 0 257 6 295 66 26 43
27 113 2 157 -10 18 -38 42 -63 55 -41 21 -57 22 -242 22 -109 0 -198 2 -198
5 0 2 46 84 101 180 101 174 101 176 97 231 -4 47 -10 61 -41 91 -30 31 -44
37 -89 40 -98 8 -102 4 -276 -296 l-60 -104 -38 68 c-134 233 -171 291 -203
312 -43 29 -113 31 -156 4z"/>
<path fill="#fff" d="M3945 1400 c-11 -4 -33 -22 -49 -39 -23 -24 -30 -42 -34 -85 -4 -55
-3 -57 97 -231 55 -96 101 -178 101 -180 0 -3 -89 -5 -198 -5 -185 0 -201 -1
-242 -22 -100 -51 -112 -185 -22 -253 25 -18 45 -20 245 -23 119 -2 217 -7
217 -11 0 -5 -36 -71 -81 -147 -111 -191 -119 -208 -119 -254 0 -127 143 -195
239 -114 16 13 73 100 126 194 54 93 101 168 104 165 4 -2 52 -81 107 -175
112 -195 132 -215 211 -215 85 0 148 61 148 144 0 41 -12 68 -100 220 -55 96
-101 178 -103 183 -2 4 93 8 211 8 206 0 215 1 248 23 91 61 89 181 -5 251
-25 19 -45 21 -241 26 l-213 5 100 172 c54 95 102 188 105 207 7 47 -27 120
-69 146 -20 12 -50 20 -79 20 -77 0 -102 -25 -214 -217 -55 -95 -102 -174
-105 -177 -3 -3 -48 70 -100 160 -97 169 -127 210 -168 225 -29 11 -90 11
-117 -1z"/>
</g>
</svg>
