<?xml version="1.0" standalone="no"?>
<!DOCTYPE svg PUBLIC "-//W3C//DTD SVG 20010904//EN"
 "http://www.w3.org/TR/2001/REC-SVG-20010904/DTD/svg10.dtd">
<svg version="1.0" xmlns="http://www.w3.org/2000/svg"
 width="512.000000pt" height="512.000000pt" viewBox="0 0 512.000000 512.000000"
 preserveAspectRatio="xMidYMid meet">
    <g transform="translate(0.000000,512.000000) scale(0.100000,-0.100000)"
    fill="#000000" stroke="none">
        <path d="M1810 4970 l0 -150 -301 0 -301 0 5 -292 c4 -328 8 -352 78 -494 114
        -234 348 -396 601 -420 l73 -6 39 -55 c21 -30 79 -105 130 -166 144 -175 194
        -246 234 -326 36 -74 37 -77 40 -213 l4 -138 -151 0 -151 0 0 -150 0 -150 450
        0 450 0 0 150 0 150 -151 0 -151 0 4 138 c3 136 4 139 40 213 40 80 90 151
        234 326 51 61 109 136 130 166 l39 55 73 6 c253 24 487 186 601 420 70 142 74
        166 78 494 l5 292 -301 0 -301 0 0 150 0 150 -750 0 -750 0 0 -150z m2 -737
        c2 -159 2 -290 0 -293 -8 -11 -113 55 -160 101 -102 100 -142 206 -142 376 l0
        103 149 0 150 0 3 -287z m1798 192 c0 -169 -40 -281 -136 -378 -48 -49 -158
        -119 -166 -107 -2 3 -2 134 0 293 l3 287 150 0 149 0 0 -95z"/>
        <path d="M798 3511 c-125 -256 -138 -279 -164 -285 -16 -3 -159 -24 -319 -47
        -159 -22 -291 -41 -292 -42 -1 -1 102 -100 228 -220 126 -120 229 -226 229
        -235 0 -8 -23 -148 -51 -310 -27 -162 -49 -296 -47 -298 2 -1 128 63 281 143
        l278 145 277 -145 c152 -80 278 -144 280 -142 2 1 -21 141 -50 311 l-52 308
        229 223 c126 123 222 223 214 223 -28 1 -608 88 -616 93 -5 3 -69 130 -142
        281 -74 152 -137 276 -141 276 -4 0 -68 -126 -142 -279z"/>
        <path d="M4038 3511 c-124 -255 -139 -280 -165 -285 -32 -7 -581 -86 -596 -86
        -6 0 93 -100 218 -223 l229 -223 -52 -308 c-29 -170 -51 -310 -50 -312 2 -1
        128 63 281 143 l278 145 277 -145 c152 -80 278 -144 280 -142 2 1 -20 135 -47
        297 -28 162 -51 302 -51 310 0 9 103 114 229 234 127 120 229 219 228 220 -1
        1 -133 21 -292 43 -160 23 -303 44 -319 47 -26 6 -39 29 -164 285 -74 153
        -138 279 -142 279 -4 0 -68 -126 -142 -279z"/>
        <path d="M1810 1055 l0 -1055 750 0 750 0 0 1055 0 1055 -750 0 -750 0 0
        -1055z m900 155 l0 -300 150 0 150 0 0 -150 0 -150 -450 0 -450 0 0 150 0 150
        150 0 150 0 0 150 0 150 -150 0 -150 0 0 150 0 150 300 0 300 0 0 -300z"/>
        <path d="M0 755 l0 -755 755 0 755 0 0 755 0 755 -755 0 -755 0 0 -755z"/>
        <path d="M3610 605 l0 -605 755 0 755 0 0 605 0 605 -755 0 -755 0 0 -605z"/>
    </g>
</svg>
