<?xml version="1.0" standalone="no"?>
<!DOCTYPE svg PUBLIC "-//W3C//DTD SVG 20010904//EN"
 "http://www.w3.org/TR/2001/REC-SVG-20010904/DTD/svg10.dtd">
<svg version="1.0" xmlns="http://www.w3.org/2000/svg"
 width="512.000000pt" height="512.000000pt" viewBox="0 0 512.000000 512.000000"
 preserveAspectRatio="xMidYMid meet">
    <g transform="translate(0.000000,512.000000) scale(0.100000,-0.100000)"
    fill="#000000" stroke="none">
        <path d="M2718 5106 c-65 -19 -129 -58 -223 -136 -98 -82 -272 -258 -360 -365
        -158 -190 -330 -488 -419 -721 -84 -222 -153 -537 -143 -656 11 -129 77 -220
        363 -498 202 -197 373 -335 614 -497 256 -173 325 -202 439 -189 70 8 131 39
        301 150 301 197 548 401 795 658 158 165 210 236 232 321 17 68 16 101 -6 232
        -75 435 -250 824 -531 1180 -83 105 -346 367 -435 433 -119 88 -147 96 -380
        99 -144 1 -213 -2 -247 -11z m295 -747 c34 -23 104 -71 156 -108 l94 -66 -157
        -3 c-86 -1 -226 -1 -312 0 l-157 3 114 81 c109 77 191 132 197 133 2 1 31 -17
        65 -40z m572 -448 c66 -60 140 -129 164 -155 l45 -46 -74 -260 c-41 -143 -77
        -265 -81 -272 -5 -8 -24 1 -61 28 -145 108 -331 210 -481 263 -111 39 -180 41
        -283 6 -136 -46 -385 -182 -507 -278 -21 -16 -42 -26 -46 -21 -9 10 -151 506
        -151 526 0 14 134 149 254 256 l69 62 516 0 516 0 120 -109z"/>
        <path d="M2499 3777 c-49 -26 -81 -69 -63 -87 6 -6 42 -15 79 -21 37 -5 88
        -18 113 -29 24 -11 54 -20 66 -20 56 0 92 68 62 115 -43 65 -173 86 -257 42z"/>
        <path d="M3204 3786 c-39 -17 -74 -61 -74 -93 0 -31 42 -73 73 -73 14 0 44 9
        68 19 24 11 61 22 82 25 20 3 52 8 71 11 66 10 51 66 -27 104 -51 24 -144 28
        -193 7z"/>
        <path d="M273 3994 c-91 -48 -125 -82 -125 -125 0 -57 109 -329 241 -604 139
        -288 404 -738 441 -750 11 -3 29 -1 41 6 40 21 259 212 264 230 7 22 -1 38
        -73 142 -155 222 -318 500 -498 853 -74 144 -136 252 -151 264 -36 28 -61 25
        -140 -16z"/>
        <path d="M1107 2503 c-164 -138 -300 -260 -307 -275 -16 -36 -8 -54 48 -115
        60 -65 82 -67 150 -13 28 21 53 44 57 50 3 5 10 10 15 10 4 0 51 -55 104 -122
        125 -161 272 -330 303 -346 13 -7 33 -10 43 -7 19 6 260 219 288 253 31 40 16
        68 -106 196 -123 128 -272 306 -272 323 0 6 21 28 46 48 100 82 105 104 43
        180 -83 101 -66 108 -412 -182z"/>
        <path d="M2195 1966 c-34 -15 -175 -133 -175 -146 0 -8 944 -972 1519 -1553
        l266 -267 230 2 230 3 -972 973 c-640 640 -985 978 -1008 987 -42 18 -51 18
        -90 1z"/>
        <path d="M3655 1965 c-16 -8 -151 -133 -300 -279 l-270 -265 127 -128 127
        -127 32 29 c17 17 156 158 309 315 l278 286 -94 79 c-125 106 -151 117 -209
        90z"/>
        <path d="M1721 1554 c-303 -307 -494 -602 -673 -1039 -57 -138 -71 -183 -75
        -240 -7 -89 20 -159 81 -211 79 -67 15 -64 1328 -62 l1186 3 -834 850 c-460
        468 -840 852 -846 854 -5 2 -81 -68 -167 -155z"/>
        <path d="M3771 1371 l-313 -321 518 -525 518 -525 126 0 c149 0 208 14 267 64
        58 50 86 121 81 205 -3 52 -18 101 -72 236 -177 442 -391 769 -708 1083 l-104
        103 -313 -320z"/>
    </g>
</svg>
