<?xml version="1.0" standalone="no"?>
<!DOCTYPE svg PUBLIC "-//W3C//DTD SVG 20010904//EN"
 "http://www.w3.org/TR/2001/REC-SVG-20010904/DTD/svg10.dtd">
<svg version="1.0" xmlns="http://www.w3.org/2000/svg"
 width="512.000000pt" height="512.000000pt" viewBox="0 0 512.000000 512.000000"
 preserveAspectRatio="xMidYMid meet">
    <g transform="translate(0.000000,512.000000) scale(0.100000,-0.100000)"
    fill="#000000" stroke="none">
        <path d="M1965 5107 c-97 -33 -154 -80 -297 -248 -132 -156 -195 -201 -393
        -279 -162 -64 -245 -117 -294 -186 -57 -78 -75 -155 -96 -414 -13 -157 -36
        -221 -146 -400 -116 -190 -148 -289 -128 -397 14 -75 43 -137 124 -268 121
        -194 137 -243 155 -466 29 -346 73 -409 380 -539 92 -39 190 -87 217 -105 28
        -19 86 -73 129 -121 173 -192 234 -251 292 -280 53 -27 65 -29 167 -28 90 1
        133 7 240 34 111 29 147 34 245 34 98 0 134 -5 245 -34 107 -27 150 -33 240
        -34 97 -1 116 2 160 23 52 26 155 124 299 285 97 108 149 142 338 221 317 134
        359 192 388 545 18 225 32 266 157 468 79 128 108 190 122 265 20 107 -15 216
        -126 393 -116 184 -136 245 -153 459 -28 348 -79 419 -394 549 -204 85 -252
        120 -400 292 -114 134 -163 178 -236 213 -82 39 -200 36 -380 -9 -118 -30
        -151 -35 -260 -35 -108 0 -143 5 -260 34 -153 38 -275 48 -335 28z m861 -608
        c246 -53 442 -158 623 -334 263 -255 392 -559 392 -925 0 -597 -397 -1099
        -988 -1247 -98 -25 -125 -27 -293 -27 -168 0 -195 2 -293 27 -350 88 -637 299
        -813 599 -121 205 -175 406 -175 648 0 217 44 403 136 584 145 284 414 522
        711 629 71 25 235 63 309 71 89 9 294 -4 391 -25z"/>
        <path d="M2415 4219 c-147 -21 -333 -100 -452 -192 -478 -369 -519 -1074 -86
        -1488 98 -93 150 -129 266 -184 149 -70 235 -89 412 -89 122 0 167 4 240 22
        109 28 268 102 351 165 147 112 275 282 334 446 44 119 60 214 60 347 0 258
        -88 483 -262 668 -222 238 -541 351 -863 305z"/>
        <path d="M1223 1572 c-126 -494 -307 -1258 -298 -1260 7 -2 161 24 344 58
        l333 61 270 -211 c148 -115 273 -210 277 -210 7 0 284 1110 279 1115 -2 2 -50
        -8 -108 -22 -142 -33 -311 -41 -405 -19 -163 39 -284 126 -458 329 -103 120
        -140 154 -199 176 -25 10 -28 8 -35 -17z"/>
        <path d="M3831 1574 c-41 -21 -77 -56 -172 -165 -178 -206 -280 -280 -440
        -320 -107 -28 -264 -22 -419 15 -58 13 -106 23 -108 22 -6 -6 273 -1116 280
        -1116 4 0 129 95 278 211 l269 210 336 -61 c185 -34 340 -60 344 -58 7 3 -301
        1273 -311 1283 -2 3 -28 -7 -57 -21z"/>
    </g>
</svg>
