<?xml version="1.0" standalone="no"?>
<!DOCTYPE svg PUBLIC "-//W3C//DTD SVG 20010904//EN"
 "http://www.w3.org/TR/2001/REC-SVG-20010904/DTD/svg10.dtd">
<svg version="1.0" xmlns="http://www.w3.org/2000/svg"
 width="512.000000pt" height="512.000000pt" viewBox="0 0 512.000000 512.000000"
 preserveAspectRatio="xMidYMid meet">
    <g transform="translate(0.000000,512.000000) scale(0.100000,-0.100000)"
    fill="#000000" stroke="none">
        <path d="M2495 4774 c-44 -23 -603 -582 -626 -626 -39 -75 -39 -74 160 -422
        l132 -229 -106 -446 c-66 -283 -114 -465 -131 -499 -117 -238 -446 -315 -660
        -154 -132 101 -238 331 -264 576 -10 86 -9 129 4 243 31 261 30 245 7 291 -35
        69 -3 59 -807 234 -29 6 -68 8 -88 4 -47 -9 -103 -64 -112 -112 -5 -26 48
        -312 206 -1112 116 -592 214 -1085 217 -1094 4 -17 114 -18 2133 -18 l2128 0
        11 48 c40 187 421 2133 421 2150 0 13 -9 41 -20 62 -21 42 -80 80 -123 80 -49
        0 -786 -168 -818 -186 -17 -10 -41 -36 -52 -58 -20 -39 -20 -39 -1 -195 33
        -270 17 -444 -56 -628 -83 -207 -201 -325 -361 -362 -190 -44 -409 59 -493
        231 -17 34 -65 216 -131 499 l-106 446 132 229 c197 344 198 347 163 417 -22
        44 -580 604 -626 628 -45 23 -92 24 -133 3z m135 -2244 c71 -36 80 -69 80
        -290 0 -221 -9 -254 -80 -290 -51 -26 -93 -25 -142 2 -70 40 -78 68 -78 288 0
        171 2 195 20 230 37 73 124 99 200 60z"/>
        <path d="M1635 3177 c-130 -52 -297 -136 -325 -163 -23 -22 9 -158 64 -269 37
        -75 52 -94 84 -113 63 -35 115 -28 171 22 31 28 32 32 96 303 31 131 58 246
        61 256 8 26 -8 22 -151 -36z"/>
        <path d="M3334 3213 c3 -10 30 -125 61 -256 64 -271 65 -275 96 -303 68 -61
        144 -58 206 8 36 38 93 170 111 256 15 72 15 83 2 96 -41 40 -424 216 -470
        216 -6 0 -9 -8 -6 -17z"/>
        <path d="M248 1089 c-23 -12 -46 -35 -58 -59 -19 -36 -20 -58 -20 -310 0 -309
        4 -326 78 -368 l40 -22 2271 0 c2211 0 2273 1 2309 19 22 11 46 35 60 59 21
        38 22 48 22 311 0 253 -1 275 -20 311 -13 26 -34 47 -60 60 -39 20 -53 20
        -2312 20 -2243 -1 -2273 -1 -2310 -21z"/>
    </g>
</svg>
