<?xml version="1.0" standalone="no"?>
<!DOCTYPE svg PUBLIC "-//W3C//DTD SVG 20010904//EN"
 "http://www.w3.org/TR/2001/REC-SVG-20010904/DTD/svg10.dtd">
<svg version="1.0" xmlns="http://www.w3.org/2000/svg"
 width="200.000000pt" height="200.000000pt" viewBox="0 0 200.000000 200.000000"
 preserveAspectRatio="xMidYMid meet">
    <g transform="translate(0.000000,200.000000) scale(0.100000,-0.100000)"
    fill="#000000" stroke="none">
        <path d="M1286 1948 c-14 -22 -37 -70 -139 -289 l-44 -95 -90 -57 c-50 -31
        -93 -57 -97 -57 -3 0 -6 15 -7 33 0 27 -4 23 -23 -33 -13 -36 -25 -59 -27 -52
        -7 20 -101 -61 -160 -137 -60 -78 -100 -160 -130 -266 -19 -66 -23 -105 -24
        -220 0 -142 16 -235 36 -204 5 8 6 22 3 32 -10 31 10 17 45 -31 22 -29 26 -40
        12 -28 -21 19 -22 19 -38 -4 -17 -25 -137 -84 -245 -122 -38 -12 -68 -26 -68
        -30 0 -20 94 -31 297 -37 122 -3 225 -9 229 -13 4 -5 -8 -8 -27 -9 -19 0 -42
        -4 -53 -8 -30 -12 71 -93 189 -151 123 -61 295 -109 295 -81 0 5 17 0 38 -10
        54 -26 185 -51 272 -51 74 -1 180 29 196 54 9 13 -109 184 -194 282 -38 43
        -105 110 -148 148 -96 84 -248 188 -275 188 -21 0 -25 -21 -9 -51 16 -29 4
        -23 -24 14 -15 19 -37 79 -56 146 -36 135 -83 252 -110 276 -20 18 -20 17 -21
        -81 -1 -123 -16 -188 -45 -192 -11 -2 -28 6 -39 18 -18 20 -18 20 8 20 36 0
        41 25 21 120 -13 65 -14 93 -5 143 23 132 128 291 240 361 42 27 47 28 99 17
        31 -6 56 -10 58 -8 1 1 -3 26 -8 55 -14 69 -1 151 51 310 21 67 37 122 35 122
        -2 0 -10 -10 -18 -22z m-528 -763 c-26 -74 -28 -191 -4 -254 13 -36 13 -41 1
        -31 -43 36 -46 202 -5 298 13 29 24 51 26 50 1 -2 -7 -30 -18 -63z m73 -771
        c-5 -16 -10 -21 -10 -12 -1 18 10 51 15 45 2 -1 -1 -16 -5 -33z m50 -30 c-5
        -16 -10 -21 -10 -12 -1 18 10 51 15 45 2 -1 -1 -16 -5 -33z m56 -51 c-3 -10
        -5 -4 -5 12 0 17 2 24 5 18 2 -7 2 -21 0 -30z m304 -115 l44 -33 -29 -3 c-23
        -3 -37 4 -63 32 -29 30 -31 36 -15 36 10 0 39 -15 63 -32z m239 -124 c30 -8
        88 -14 128 -14 46 0 71 -4 67 -10 -3 -5 -40 -10 -80 -10 -75 0 -153 19 -190
        47 l-20 15 20 -7 c11 -4 45 -14 75 -21z" fill="#023d75"/>
        <path d="M1312 730 c-13 -18 -42 -40 -64 -50 l-40 -18 58 -41 c70 -50 76 -45
        72 65 l-3 76 -23 -32z" fill="#023d75"/>
    </g>
</svg>
