<?xml version="1.0" standalone="no"?>
<!DOCTYPE svg PUBLIC "-//W3C//DTD SVG 20010904//EN"
 "http://www.w3.org/TR/2001/REC-SVG-20010904/DTD/svg10.dtd">
<svg version="1.0" xmlns="http://www.w3.org/2000/svg"
 width="512.000000pt" height="512.000000pt" viewBox="0 0 512.000000 512.000000"
 preserveAspectRatio="xMidYMid meet">
    <g transform="translate(0.000000,512.000000) scale(0.100000,-0.100000)"
    fill="#000000" stroke="none">
        <path d="M1720 4153 c-147 -16 -317 -66 -453 -134 -371 -185 -641 -524 -741
        -931 -33 -134 -206 -1385 -206 -1489 0 -73 31 -193 72 -279 55 -115 177 -238
        289 -293 182 -89 372 -88 556 3 90 44 184 124 236 199 17 25 125 226 238 446
        l207 400 642 0 642 0 207 -400 c113 -220 221 -421 238 -446 118 -170 343 -279
        553 -266 166 11 297 74 416 201 92 96 145 200 170 331 22 109 20 133 -91 940
        -79 576 -103 697 -164 849 -153 380 -482 692 -856 809 -202 64 -150 61 -1075
        62 -465 1 -861 1 -880 -2z m1885 -492 c158 -71 167 -296 15 -380 -92 -51 -212
        -22 -274 67 -40 57 -48 149 -18 208 55 107 174 152 277 105z m-1845 -301 l0
        -160 160 0 160 0 0 -160 0 -160 -160 0 -160 0 0 -160 0 -160 -160 0 -160 0 0
        160 0 160 -160 0 -160 0 0 160 0 160 160 0 160 0 0 160 0 160 160 0 160 0 0
        -160z m1452 -146 c161 -113 97 -366 -96 -382 -66 -5 -117 10 -163 51 -115 101
        -89 274 52 351 21 12 49 15 97 13 56 -2 74 -8 110 -33z m826 17 c138 -71 163
        -248 49 -348 -137 -120 -349 -25 -351 156 0 88 46 161 124 195 50 22 133 20
        178 -3z m-413 -435 c114 -62 140 -223 52 -323 -127 -145 -367 -55 -367 137 0
        168 166 267 315 186z"/>
    </g>
</svg>
