<?xml version="1.0" standalone="no"?>
<!DOCTYPE svg PUBLIC "-//W3C//DTD SVG 20010904//EN"
 "http://www.w3.org/TR/2001/REC-SVG-20010904/DTD/svg10.dtd">
<svg version="1.0" xmlns="http://www.w3.org/2000/svg"
 width="512.000000pt" height="512.000000pt" viewBox="0 0 512.000000 512.000000"
 preserveAspectRatio="xMidYMid meet">
    <g transform="translate(0.000000,512.000000) scale(0.100000,-0.100000)"
    fill="#000000" stroke="none">
        <path d="M95 5106 c-41 -18 -83 -69 -90 -109 -3 -18 -4 -730 -3 -1584 3 -1549
        3 -1552 24 -1579 11 -15 33 -37 48 -48 27 -21 33 -21 1217 -24 l1191 -2 16 42
        c27 72 110 227 157 294 l44 64 -774 0 -775 0 -21 42 c-76 150 -253 347 -401
        449 -87 59 -245 141 -300 154 l-28 7 0 628 0 628 28 7 c55 13 213 95 300 154
        148 102 325 299 401 449 l21 42 1410 0 1410 0 21 -42 c76 -149 265 -359 413
        -458 80 -53 238 -133 289 -145 l27 -7 0 -628 0 -628 -27 -7 c-48 -11 -208 -91
        -272 -135 l-62 -42 118 -59 c254 -127 479 -340 620 -585 l22 -39 -2 1537 c-2
        1535 -2 1537 -23 1564 -11 15 -33 37 -48 48 l-27 21 -2447 2 c-2019 2 -2452 0
        -2477 -11z"/>
        <path d="M1213 4506 c-51 -83 -153 -205 -239 -285 -92 -85 -251 -193 -347
        -236 l-66 -30 0 -515 0 -515 66 -30 c194 -86 448 -307 563 -487 l55 -87 798 0
        798 -1 81 66 c197 160 381 248 640 306 157 34 459 31 588 -7 8 -3 60 29 115
        70 55 41 143 96 197 123 l97 47 0 515 1 515 -45 18 c-67 28 -199 111 -291 183
        -106 82 -226 213 -295 319 l-54 84 -1315 0 -1315 0 -32 -53z m1507 -144 l0
        -118 69 -10 c198 -32 366 -191 401 -383 18 -99 31 -91 -149 -91 l-159 0 -6 33
        c-9 46 -60 104 -104 117 -23 7 -111 10 -234 8 -215 -3 -223 -5 -272 -72 -29
        -39 -29 -133 0 -172 50 -68 52 -68 317 -75 214 -4 248 -7 294 -26 161 -64 267
        -181 308 -340 69 -266 -118 -543 -396 -587 l-69 -10 0 -118 0 -118 -160 0
        -160 0 0 118 0 118 -70 11 c-189 30 -346 172 -395 358 -8 33 -15 72 -15 87 l0
        28 158 0 157 0 15 -47 c10 -32 27 -56 53 -77 l39 -31 218 0 c240 0 244 1 294
        69 29 39 29 133 0 172 -50 68 -52 68 -317 75 -185 4 -252 9 -283 21 -165 64
        -277 184 -319 343 -69 268 117 545 396 589 l69 10 0 118 0 118 160 0 160 0 0
        -118z"/>
        <path d="M3700 2554 c-588 -75 -1041 -515 -1126 -1094 -57 -393 78 -802 358
        -1077 124 -122 204 -180 336 -247 494 -249 1098 -146 1484 252 196 202 313
        436 352 703 60 408 -70 798 -363 1090 -185 185 -380 293 -631 350 -83 19 -331
        33 -410 23z m300 -874 l0 -240 240 0 240 0 0 -160 0 -160 -240 0 -240 0 0
        -240 0 -240 -160 0 -160 0 0 240 0 240 -240 0 -240 0 0 160 0 160 240 0 240 0
        0 240 0 240 160 0 160 0 0 -240z"/>
        <path d="M2 1432 c3 -231 5 -236 72 -286 27 -21 34 -21 1180 -24 l1153 -2 -5
        109 c-4 96 5 218 24 334 l7 37 -1155 0 c-1181 0 -1176 0 -1261 35 -17 7 -18
        -3 -15 -203z"/>
    </g>
</svg>
