<?xml version="1.0" standalone="no"?>
<!DOCTYPE svg PUBLIC "-//W3C//DTD SVG 20010904//EN"
 "http://www.w3.org/TR/2001/REC-SVG-20010904/DTD/svg10.dtd">
<svg version="1.0" xmlns="http://www.w3.org/2000/svg"
 width="512.000000pt" height="512.000000pt" viewBox="0 0 512.000000 512.000000"
 preserveAspectRatio="xMidYMid meet">
    <g transform="translate(0.000000,512.000000) scale(0.100000,-0.100000)"
    fill="#000000" stroke="none">
        <path d="M452 4667 c-13 -14 -22 -36 -22 -54 0 -33 712 -1589 752 -1643 37
        -51 107 -89 194 -105 170 -33 264 -140 264 -299 0 -79 -31 -147 -94 -204 -52
        -48 -74 -58 -162 -77 -107 -23 -178 -73 -220 -155 -94 -185 -734 -1600 -734
        -1622 0 -38 40 -78 78 -78 17 0 360 152 823 366 829 381 837 385 890 471 11
        17 26 66 34 107 18 92 41 139 92 188 57 55 115 78 200 78 61 0 80 -5 135 -33
        84 -43 131 -111 153 -217 17 -84 53 -150 105 -191 49 -39 1636 -769 1672 -769
        38 0 78 40 78 79 0 18 -146 345 -367 826 -384 834 -392 848 -472 890 -17 8
        -66 23 -108 31 -91 19 -120 32 -174 81 -59 53 -81 104 -87 194 -4 66 -1 84 20
        131 45 96 115 149 233 173 83 18 135 46 178 95 42 50 777 1641 777 1683 0 37
        -41 77 -79 77 -30 0 -1563 -699 -1632 -745 -49 -32 -96 -106 -110 -173 -24
        -118 -40 -155 -93 -207 -60 -61 -121 -85 -210 -85 -141 0 -249 96 -281 250
        -18 84 -53 150 -105 191 -53 43 -1634 769 -1674 769 -21 0 -40 -8 -54 -23z
        m2179 -1687 c135 -26 255 -116 310 -234 62 -133 60 -248 -6 -383 -60 -122
        -169 -200 -313 -225 -135 -23 -283 30 -378 135 -153 170 -147 426 15 587 61
        61 127 97 211 116 70 16 95 16 161 4z"/>
        <path d="M2504 2811 c-97 -25 -175 -103 -194 -195 -34 -166 82 -309 251 -310
        205 -1 323 228 206 401 -54 79 -174 127 -263 104z"/>
    </g>
</svg>
